<svg width="39" height="41" viewBox="0 0 39 41" fill="none" xmlns="http://www.w3.org/2000/svg">
<g filter="url(#filter0_d_1_160)">
<path d="M8.506 10.4997H8.4625C8.00192 10.5285 7.54035 10.4619 7.10671 10.3041C6.67306 10.1462 6.27667 9.90056 5.94235 9.58244C5.60804 9.26432 5.34301 8.8806 5.16384 8.45532C4.98468 8.03004 4.89525 7.57234 4.90115 7.1109C4.90705 6.64946 5.00816 6.1942 5.19814 5.77364C5.38812 5.35307 5.66288 4.97626 6.00522 4.6668C6.34756 4.35733 6.7501 4.12188 7.18765 3.97517C7.62519 3.82847 8.08831 3.77369 8.548 3.81424C9.00859 3.78207 9.47086 3.84538 9.90584 4.0002C10.3408 4.15503 10.7391 4.39804 11.0758 4.714C11.4125 5.02996 11.6803 5.41205 11.8624 5.83634C12.0445 6.26062 12.137 6.71795 12.1341 7.17965C12.1312 7.64136 12.0329 8.09748 11.8455 8.51945C11.6581 8.94141 11.3855 9.32011 11.0449 9.63181C10.7043 9.94352 10.303 10.1815 9.86607 10.3309C9.42918 10.4802 8.96615 10.5377 8.506 10.4997Z" fill="#2D76F9"/>
<path d="M5.52698 15H11.527V33H5.52698V15Z" fill="#2D76F9"/>
<path d="M27.277 15C26.266 15.0027 25.2687 15.2339 24.3596 15.6763C23.4504 16.1186 22.6531 16.7607 22.027 17.5545V15H16.027V33H22.027V24.75C22.027 23.9544 22.343 23.1913 22.9057 22.6287C23.4683 22.0661 24.2313 21.75 25.027 21.75C25.8226 21.75 26.5857 22.0661 27.1483 22.6287C27.7109 23.1913 28.027 23.9544 28.027 24.75V33H34.027V21.75C34.027 19.9598 33.3158 18.2429 32.0499 16.977C30.7841 15.7112 29.0672 15 27.277 15Z" fill="#2D76F9"/>
</g>
<defs>
<filter id="filter0_d_1_160" x="-3" y="0" width="44" height="44" filterUnits="userSpaceOnUse" color-interpolation-filters="sRGB">
<feFlood flood-opacity="0" result="BackgroundImageFix"/>
<feColorMatrix in="SourceAlpha" type="matrix" values="0 0 0 0 0 0 0 0 0 0 0 0 0 0 0 0 0 0 127 0" result="hardAlpha"/>
<feOffset dy="4"/>
<feGaussianBlur stdDeviation="2"/>
<feComposite in2="hardAlpha" operator="out"/>
<feColorMatrix type="matrix" values="0 0 0 0 0 0 0 0 0 0 0 0 0 0 0 0 0 0 0.25 0"/>
<feBlend mode="normal" in2="BackgroundImageFix" result="effect1_dropShadow_1_160"/>
<feBlend mode="normal" in="SourceGraphic" in2="effect1_dropShadow_1_160" result="shape"/>
</filter>
</defs>
</svg>
